<!-- Generated by IcoMoon.io -->
<svg version="1.1" xmlns="http://www.w3.org/2000/svg" width="32" height="32" viewBox="0 0 32 32">
<title>cosmetic</title>
<path d="M17.606 16.098c0.238-1.546 0.833-2.26 1.784-3.093 1.665-1.665 3.093-3.45 1.903-7.97l-0.119-0.238c-1.784-3.926-5.591-5.115-8.565-4.402-3.331 0.714-5.472 3.212-5.472 6.186h2.974c0-1.903 1.665-2.974 3.093-3.212 1.665-0.357 4.045 0.119 5.234 2.617 0.833 3.093 0.119 3.807-1.071 4.996-1.071 0.952-2.379 2.26-2.617 5.115l-14.751 10.944v0.833c0 1.309 0 3.926 16.892 3.926 3.688 0 7.019-0.119 9.398-0.476 2.736-0.357 5.71-0.952 5.71-3.212v-0.833l-14.394-11.182zM5.234 27.518l10.825-8.089 10.825 8.327c-4.996 0.714-16.535 0.595-21.651-0.238z"></path>
</svg>
