<!-- Generated by IcoMoon.io -->
<svg version="1.1" xmlns="http://www.w3.org/2000/svg" width="32" height="32" viewBox="0 0 32 32">
<title>enchanted</title>
<path d="M17.351 32c-3.932 0-7.863-1.404-10.531-3.791-3.089-2.668-4.915-6.6-5.055-11.093-0.14-4.774 1.685-9.548 4.774-12.638 4.353-4.213 11.233-5.617 17.693-3.51l-0.702 1.966c-5.617-1.966-11.795-0.702-15.586 2.949-2.808 2.668-4.353 6.88-4.213 11.093 0.14 3.932 1.685 7.302 4.353 9.548 2.808 2.387 6.88 3.651 10.672 3.23 3.089-0.281 5.617-1.685 7.302-3.791 2.808-3.651 3.23-10.391-0.843-14.323-2.808-2.808-8.706-4.915-12.497-1.545-1.825 1.545-2.808 4.072-2.668 6.88 0.14 2.387 0.983 4.353 2.527 5.476 2.247 1.685 6.6 1.825 8.425-0.702 1.264-1.685 1.545-4.774 0-6.038-0.702-0.562-1.825-0.842-2.668-0.842-0.281 0-0.702 0.14-0.983 0.421-0.421 0.421-0.281 1.264-0.14 1.966l-1.966 0.562c-0.281-0.702-0.562-2.527 0.421-3.791 0.562-0.702 1.404-1.123 2.387-1.264 1.404-0.14 3.089 0.421 4.213 1.264 2.527 2.106 2.247 6.459 0.281 8.987-2.668 3.37-8.285 3.37-11.374 1.123-1.966-1.545-3.23-4.072-3.37-7.021 0-3.37 1.264-6.6 3.51-8.565 4.353-3.791 11.374-2.247 15.306 1.685 4.353 4.353 4.915 12.076 0.983 17.131-1.966 2.668-5.055 4.213-8.706 4.634-0.562 0-1.123 0-1.545 0z"></path>
</svg>
