<!-- Generated by IcoMoon.io -->
<svg version="1.1" xmlns="http://www.w3.org/2000/svg" width="32" height="32" viewBox="0 0 32 32">
<title>helm</title>
<path d="M26.215 0h-20.396c-0.703 0-2.11 0.234-3.282 1.172-1.875 1.641-1.289 7.619-1.289 7.619s0 13.128 0 19.692c0.117 2.344 1.172 3.516 3.634 3.516h7.267v-11.722h7.736v11.722h7.385c2.227 0 3.399-1.407 3.516-3.516 0-6.564 0-19.575 0-19.575s0.469-5.861-1.407-7.502c-1.055-1.055-2.462-1.289-3.165-1.407zM9.336 19.692h-2.344c-1.172 0-2.11-0.938-2.11-2.11s0.938-2.11 2.11-2.11h2.344c1.172 0 2.11 0.938 2.11 2.11 0.117 1.172-0.82 2.11-2.11 2.11zM24.926 19.692h-2.462c-1.172 0-2.11-0.938-2.11-2.11s0.938-2.11 2.11-2.11h2.462c1.172 0 2.11 0.938 2.11 2.11s-0.938 2.11-2.11 2.11z"></path>
</svg>
