<!-- Generated by IcoMoon.io -->
<svg version="1.1" xmlns="http://www.w3.org/2000/svg" width="32" height="32" viewBox="0 0 32 32">
<title>artefact</title>
<path d="M31.936 22.664c-1.159-6.181-10.624-10.238-12.169-10.817v-7.34h3.863v-4.25h-15.839v4.25h3.863v7.34c-1.352 0.579-10.624 5.022-11.59 11.397-0.386 2.897 0.966 5.602 4.056 8.499v0h23.373c3.477-3.091 4.829-6.181 4.443-9.079zM12.040 17.642c-0.773 2.511-4.443 6.181-6.567 6.567-0.193 0-0.386 0-0.386 0-0.58 0-0.773-0.193-0.966-0.386s-0.579-0.773-0.386-1.545c0.58-2.318 4.25-6.181 6.567-6.761 0.966-0.193 1.352 0 1.738 0.193 0.193 0.579 0.193 1.159 0 1.932z"></path>
</svg>
