<!-- Generated by IcoMoon.io -->
<svg version="1.1" xmlns="http://www.w3.org/2000/svg" width="512" height="512" viewBox="0 0 512 512">
<title></title>
<g id="icomoon-ignore">
</g>
<path fill="#000" d="M451.048 243.81h-36.572v-97.524c0-26.819-21.943-48.762-48.762-48.762h-97.524v-36.572c0-34.133-26.819-60.953-60.952-60.953s-60.952 26.819-60.952 60.953v36.572h-97.524c-26.819 0-48.762 21.943-48.762 48.762v92.647h36.572c36.572 0 65.829 29.257 65.829 65.829s-29.257 65.829-65.829 65.829h-36.572v92.647c0 26.819 21.943 48.762 48.762 48.762h92.647v-36.572c0-36.572 29.257-65.829 65.829-65.829s65.829 29.257 65.829 65.829v36.572h92.647c26.819 0 48.762-21.943 48.762-48.762v-97.524h36.572c34.134 0 60.952-26.819 60.952-60.952s-26.819-60.952-60.952-60.952z"></path>
</svg>
