<!-- Generated by IcoMoon.io -->
<svg version="1.1" xmlns="http://www.w3.org/2000/svg" width="32" height="32" viewBox="0 0 32 32">
<title>ranged</title>
<path d="M24.522 17.565h-5.565l-1.913-1.913 12.696-12.696-1.913-0.174c-8.348-0.522-14.783 1.043-18.956 4.696l-2.435-2.435 4.87-4.87h-11.304v11.304l4.87-4.87 2.435 2.435c-3.13 3.652-4.87 8.87-4.87 15.652 0 1.043 0 2.261 0.174 3.304l0.174 1.913 12.696-12.696 1.913 2.087v5.391l7.304 7.13v-0.522c0 0 0-5.217 0.174-6.435l7.13-0.174-7.478-7.13zM25.739 4.522l-9.913 9.913-5.739-5.739c3.478-2.957 8.87-4.522 15.652-4.174zM4.348 26.087c0-0.348 0-0.87 0-1.217 0-6.261 1.391-11.13 4.348-14.435l5.739 5.739-10.087 9.913z"></path>
</svg>
