<!-- Generated by IcoMoon.io -->
<svg version="1.1" xmlns="http://www.w3.org/2000/svg" width="32" height="32" viewBox="0 0 32 32">
<title>soulgathering</title>
<path d="M29.333 14.044v-0.711c0-6.578-4.978-12.267-11.378-13.156-0.711-0.178-1.422-0.178-1.956-0.178-0.711 0-1.422 0-2.133 0.178-6.4 1.067-11.2 6.578-11.2 13.156v0.711c-0.178 0.711-0.178 1.244-0.178 1.956s0 1.244 0.178 1.956v0.711c0 6.578 4.978 12.267 11.378 13.156 0.533 0.178 1.244 0.178 1.956 0.178s1.422 0 1.956-0.178c6.4-0.889 11.378-6.578 11.378-13.156v-0.711c0-0.711 0.178-1.244 0.178-1.956s-0.178-1.244-0.178-1.956zM8.889 16c-1.6 0-2.667-1.6-2.667-3.556s1.244-3.556 2.667-3.556 2.667 1.6 2.667 3.556-1.244 3.556-2.667 3.556zM16 28.444c-2.489 0-4.444-2.844-4.444-6.222s1.956-6.222 4.444-6.222 4.444 2.844 4.444 6.222c0 3.378-1.956 6.222-4.444 6.222zM23.111 16c-1.422 0-2.667-1.6-2.667-3.556s1.244-3.556 2.667-3.556 2.667 1.6 2.667 3.556-1.244 3.556-2.667 3.556z"></path>
</svg>
