<!-- Generated by IcoMoon.io -->
<svg version="1.1" xmlns="http://www.w3.org/2000/svg" width="32" height="32" viewBox="0 0 32 32">
<title>close</title>
<path d="M20.933 16l7.399-7.399c0.908-0.908 0.908-2.38 0-3.289l-1.644-1.644c-0.908-0.908-2.38-0.908-3.289 0l-7.399 7.399-7.399-7.399c-0.908-0.908-2.38-0.908-3.289 0l-1.644 1.644c-0.908 0.908-0.908 2.38 0 3.289l7.399 7.399-7.399 7.399c-0.908 0.908-0.908 2.38 0 3.289l1.644 1.644c0.908 0.908 2.381 0.908 3.289 0l7.399-7.399 7.399 7.399c0.908 0.908 2.381 0.908 3.289 0l1.644-1.644c0.908-0.908 0.908-2.38 0-3.289l-7.399-7.399z"></path>
</svg>
