<!-- Generated by IcoMoon.io -->
<svg version="1.1" xmlns="http://www.w3.org/2000/svg" width="512" height="512" viewBox="0 0 512 512">
<title></title>
<g id="icomoon-ignore">
</g>
<path fill="#000" d="M494.808 317.522l-43.974-25.394c4.438-23.949 4.438-48.516 0-72.464l43.974-25.393c5.058-2.891 7.329-8.877 5.678-14.452-11.458-36.748-30.967-69.987-56.464-97.651-3.923-4.232-10.322-5.264-15.277-2.374l-43.974 25.394c-18.478-15.897-39.742-28.18-62.761-36.232v-50.684c0-5.78-4.026-10.838-9.703-12.078-37.884-8.464-76.697-8.052-112.722 0-5.678 1.239-9.703 6.296-9.703 12.078v50.787c-22.916 8.155-44.18 20.439-62.761 36.232l-43.871-25.394c-5.058-2.891-11.355-1.962-15.278 2.374-25.496 27.561-45.007 60.8-56.465 97.651-1.755 5.574 0.62 11.561 5.678 14.452l43.974 25.393c-4.438 23.948-4.438 48.516 0 72.464l-43.974 25.394c-5.058 2.89-7.329 8.877-5.678 14.452 11.458 36.748 30.968 69.987 56.465 97.651 3.922 4.232 10.323 5.264 15.278 2.374l43.974-25.394c18.477 15.897 39.742 28.18 62.761 36.232v50.787c0 5.781 4.026 10.839 9.703 12.077 37.883 8.464 76.696 8.051 112.722 0 5.678-1.238 9.703-6.296 9.703-12.077v-50.787c22.916-8.155 44.18-20.438 62.761-36.232l43.974 25.394c5.058 2.89 11.355 1.962 15.277-2.374 25.497-27.561 45.007-60.8 56.464-97.651 1.548-5.678-0.723-11.664-5.781-14.555zM255.944 338.477c-45.523 0-82.581-37.058-82.581-82.581s37.058-82.581 82.581-82.581 82.581 37.058 82.581 82.581-37.058 82.581-82.581 82.581z"></path>
</svg>
