<!-- Generated by IcoMoon.io -->
<svg version="1.1" xmlns="http://www.w3.org/2000/svg" width="40" height="32" viewBox="0 0 40 32">
<title>eye-slash</title>
<path d="M20.015 25.009c-4.745 0-8.586-3.673-8.94-8.328l-6.563-5.072c-0.863 1.082-1.657 2.227-2.297 3.478-0.137 0.266-0.218 0.58-0.218 0.913s0.080 0.647 0.223 0.924l-0.005-0.011c3.393 6.62 10.109 11.098 17.8 11.098 1.684 0 3.308-0.25 4.873-0.654l-3.246-2.512c-0.486 0.099-1.048 0.158-1.622 0.163l-0.004 0zM39.648 28.644l-6.916-5.345c2.074-1.756 3.779-3.876 5.029-6.271l0.054-0.114c0.137-0.266 0.218-0.58 0.218-0.913s-0.080-0.647-0.223-0.924l0.005 0.011c-3.393-6.62-10.109-11.098-17.8-11.098-3.38 0.004-6.555 0.878-9.315 2.409l0.099-0.050-7.959-6.152c-0.168-0.132-0.382-0.211-0.615-0.211-0.32 0-0.606 0.15-0.789 0.385l-0.002 0.002-1.228 1.581c-0.131 0.168-0.211 0.382-0.211 0.614 0 0.32 0.15 0.605 0.384 0.789l0.002 0.002 36.808 28.448c0.168 0.132 0.382 0.211 0.615 0.211 0.32 0 0.606-0.15 0.789-0.385l0.002-0.002 1.229-1.581c0.131-0.168 0.21-0.382 0.21-0.614 0-0.32-0.151-0.606-0.385-0.789l-0.002-0.002zM28.155 19.76l-2.459-1.901c0.198-0.553 0.316-1.191 0.325-1.855l0-0.004c0-0.023 0-0.051 0-0.078 0-3.274-2.654-5.928-5.928-5.928-0.592 0-1.164 0.087-1.703 0.248l0.042-0.011c0.363 0.487 0.581 1.1 0.582 1.765v0c-0.010 0.227-0.045 0.441-0.101 0.646l0.005-0.021-4.605-3.559c1.532-1.287 3.526-2.070 5.702-2.071h0c0.001 0 0.003 0 0.005 0 4.973 0 9.004 4.031 9.004 9.004 0 0.002 0 0.004 0 0.005v-0c0 1.353-0.331 2.614-0.87 3.761z"></path>
</svg>
