<!-- Generated by IcoMoon.io -->
<svg version="1.1" xmlns="http://www.w3.org/2000/svg" width="36" height="32" viewBox="0 0 36 32">
<title>eye</title>
<path d="M35.816 15.087c-3.393-6.62-10.109-11.098-17.8-11.098s-14.409 4.482-17.8 11.099c-0.137 0.266-0.218 0.58-0.218 0.913s0.080 0.647 0.223 0.924l-0.005-0.011c3.393 6.62 10.109 11.098 17.8 11.098s14.409-4.482 17.8-11.099c0.137-0.266 0.218-0.58 0.218-0.913s-0.080-0.647-0.223-0.924l0.005 0.011zM18.016 25.009c-4.975 0-9.009-4.033-9.009-9.009s4.033-9.009 9.009-9.009c4.975 0 9.009 4.033 9.009 9.009v0c0 0.001 0 0.003 0 0.004 0 4.973-4.031 9.004-9.004 9.004-0.002 0-0.003 0-0.005 0h0zM18.016 9.994c-0.567 0.008-1.111 0.094-1.626 0.248l0.042-0.011c0.364 0.49 0.582 1.107 0.582 1.774 0 1.653-1.34 2.994-2.994 2.994-0.668 0-1.284-0.219-1.782-0.588l0.008 0.006c-0.133 0.471-0.209 1.011-0.209 1.57 0 3.309 2.683 5.992 5.992 5.992s5.992-2.683 5.992-5.992c0-3.309-2.683-5.992-5.992-5.992-0.005 0-0.010 0-0.015 0h0.001z"></path>
</svg>
