<!-- Generated by IcoMoon.io -->
<svg version="1.1" xmlns="http://www.w3.org/2000/svg" width="32" height="32" viewBox="0 0 32 32">
<title>reload</title>
<path d="M23.401 8.083c-2.017-1.889-4.634-2.924-7.411-2.921-4.997 0.004-9.312 3.431-10.503 8.184-0.087 0.346-0.395 0.59-0.752 0.59h-3.697c-0.484 0-0.851-0.439-0.762-0.915 1.396-7.413 7.904-13.021 15.723-13.021 4.287 0 8.18 1.686 11.053 4.431l2.304-2.304c0.975-0.975 2.643-0.285 2.643 1.095v8.649c0 0.855-0.693 1.548-1.548 1.548h-8.649c-1.379 0-2.070-1.668-1.095-2.643l2.694-2.693zM1.548 18.581h8.649c1.379 0 2.070 1.668 1.095 2.643l-2.694 2.694c2.017 1.889 4.634 2.924 7.411 2.921 4.995-0.004 9.311-3.429 10.502-8.184 0.087-0.346 0.395-0.59 0.752-0.59h3.697c0.484 0 0.851 0.439 0.762 0.915-1.396 7.413-7.904 13.021-15.723 13.021-4.287 0-8.18-1.686-11.053-4.431l-2.304 2.304c-0.975 0.975-2.643 0.285-2.643-1.095v-8.649c0-0.855 0.693-1.548 1.548-1.548z"></path>
</svg>
