<!-- Generated by IcoMoon.io -->
<svg version="1.1" xmlns="http://www.w3.org/2000/svg" width="32" height="32" viewBox="0 0 32 32">
<title>save</title>
<path d="M30.996 6.996l-5.992-5.992c-0.62-0.62-1.478-1.004-2.424-1.004h-19.151c-1.894 0-3.429 1.535-3.429 3.429v25.143c0 1.894 1.535 3.429 3.429 3.429h25.143c1.894 0 3.429-1.535 3.429-3.429v-19.151c0-0.947-0.384-1.804-1.004-2.424v0zM19.429 3.429v5.714h-9.143v-5.714h9.143zM28.143 28.572h-24.286c-0.237 0-0.429-0.192-0.429-0.429v0-24.286c0-0.237 0.192-0.429 0.429-0.429v0h3v7.429c0 0.947 0.768 1.714 1.714 1.714h12.571c0.947 0 1.714-0.768 1.714-1.714v-7.151l5.589 5.589c0.078 0.078 0.125 0.185 0.125 0.303 0 0 0 0 0 0v0 18.545c0 0.237-0.192 0.429-0.429 0.429v0zM16 14.286c-3.466 0-6.286 2.82-6.286 6.286s2.82 6.286 6.286 6.286 6.286-2.82 6.286-6.286-2.82-6.286-6.286-6.286zM16 23.429c-1.575 0-2.857-1.282-2.857-2.857s1.282-2.857 2.857-2.857 2.857 1.282 2.857 2.857-1.282 2.857-2.857 2.857z"></path>
</svg>
