<!-- Generated by IcoMoon.io -->
<svg version="1.1" xmlns="http://www.w3.org/2000/svg" width="28" height="32" viewBox="0 0 28 32">
<title>attachment</title>
<path d="M22.762 5.237c-1.525-1.525-4-1.525-5.525 0l-11.5 11.5c-2.631 2.631-2.631 6.894 0 9.525s6.894 2.631 9.525 0l9.5-9.5c0.681-0.681 1.794-0.681 2.475 0s0.681 1.794 0 2.475l-9.5 9.5c-4 4-10.475 4-14.475 0s-4-10.475 0-14.475l11.5-11.5c2.894-2.894 7.581-2.894 10.475 0s2.894 7.581 0 10.475l-11 11c-1.787 1.788-4.688 1.788-6.475 0s-1.787-4.688 0-6.475l9-9c0.681-0.681 1.794-0.681 2.475 0s0.681 1.794 0 2.475l-9 9c-0.419 0.419-0.419 1.106 0 1.525s1.106 0.419 1.525 0l11-11c1.525-1.525 1.525-4 0-5.525z"></path>
</svg>
