<!-- Generated by IcoMoon.io -->
<svg version="1.1" xmlns="http://www.w3.org/2000/svg" width="32" height="32" viewBox="0 0 32 32">
<title>calendar</title>
<path d="M10.995 11.996h4.004v4.004h-4.004zM17.001 11.996h4.004v4.004h-4.004zM23.007 11.996h4.004v4.004h-4.004zM4.989 24.008h4.004v4.004h-4.004zM10.995 24.008h4.004v4.004h-4.004zM17.001 24.008h4.004v4.004h-4.004zM10.995 18.002h4.004v4.004h-4.004zM17.001 18.002h4.004v4.004h-4.004zM23.007 18.002h4.004v4.004h-4.004zM4.989 18.002h4.004v4.004h-4.004zM27.011-0.016v2.002h-4.004v-2.002h-14.014v2.002h-4.004v-2.002h-4.004v32.031h30.029v-32.031h-4.004zM29.013 30.014h-26.025v-22.021h26.025v22.021z"></path>
</svg>
