<!-- Generated by IcoMoon.io -->
<svg version="1.1" xmlns="http://www.w3.org/2000/svg" width="32" height="32" viewBox="0 0 32 32">
<title>close</title>
<path d="M21.023 16l7.534-7.534c0.925-0.925 0.925-2.424 0-3.349l-1.674-1.674c-0.925-0.925-2.424-0.925-3.349 0l-7.534 7.534-7.534-7.534c-0.925-0.925-2.424-0.925-3.349 0l-1.674 1.674c-0.925 0.925-0.925 2.424 0 3.349l7.534 7.534-7.534 7.534c-0.925 0.925-0.925 2.424 0 3.349l1.674 1.674c0.925 0.925 2.424 0.925 3.349 0l7.534-7.534 7.534 7.534c0.925 0.925 2.424 0.925 3.349 0l1.674-1.674c0.925-0.925 0.925-2.424 0-3.349l-7.534-7.534z"></path>
</svg>
