<!-- Generated by IcoMoon.io -->
<svg version="1.1" xmlns="http://www.w3.org/2000/svg" width="512" height="512" viewBox="0 0 512 512">
<title></title>
<g id="icomoon-ignore">
</g>
<path fill="#000" d="M205.282 0.001c-52.267 0-99.689 9.014-136.323 24.713-18.317 7.85-33.938 17.033-46.238 29.496s-21.524 29.224-21.524 47.833v306.129c0 66.327 102.043 102.043 204.085 102.043 22.959 0 45.76-2.232 66.169-4.784-15.307-12.755-25.67-30.772-35.875-48.63-10.204 2.551-20.089 2.392-30.294 2.392-94.39 0-153.065-33.164-153.065-51.022v-33.483c38.266 20.409 96.941 33.483 153.065 33.483h15.147c0-7.653-2.392-15.307-2.392-25.511 0-7.653-0.16-17.858 2.392-25.511h-15.147c-94.39 0-153.065-33.164-153.065-51.022v-33.483c38.266 20.409 96.941 33.483 153.065 33.483 10.204 0 20.727 0.159 33.483-2.392 12.755-25.511 32.845-46.079 55.804-61.386-25.511 7.653-56.124 12.755-89.287 12.755-94.39 0-153.065-33.164-153.065-51.022v-33.483c5.453 2.964 10.674 6.169 16.742 8.769 36.634 15.701 84.056 24.714 136.323 24.714s99.689-9.013 136.323-24.714c6.067-2.601 11.288-5.805 16.741-8.769v33.483c0 5.102-5.102 9.885-12.755 17.538 12.755-2.552 25.511-4.784 38.266-4.784 7.653 0 17.858-0.16 25.511 2.392v-117.19c0-18.609-9.224-35.369-21.524-47.833s-27.921-21.646-46.238-29.497c-36.634-15.7-84.056-24.713-136.323-24.713zM205.282 51.022c46.357 0 88.395 8.729 116.393 20.727 13.999 5.999 24.522 12.486 30.294 18.336s6.378 9.434 6.378 11.958c0 2.525-0.605 6.109-6.378 11.958s-16.296 12.337-30.294 18.336c-27.998 11.999-70.035 20.727-116.393 20.727s-88.395-8.729-116.393-20.727c-13.999-5.999-24.522-12.487-30.294-18.336s-6.378-9.434-6.378-11.958c0-2.525 0.605-6.109 6.378-11.958s16.296-12.337 30.294-18.336c27.998-11.999 70.035-20.727 116.393-20.727zM399.004 250.325l10.363 106.827 27.902-27.902c31.422 31.422 31.422 77.796 0 109.218s-77.796 31.422-109.218 0c-31.422-31.422-31.422-77.796 0-109.218l-35.875-35.875c-50.213 50.212-50.213 130.755 0 180.967s130.755 50.212 180.967 0c50.212-50.212 50.212-130.755 0-180.967l30.294-30.294-104.435-12.755z"></path>
</svg>
