<!-- Generated by IcoMoon.io -->
<svg version="1.1" xmlns="http://www.w3.org/2000/svg" width="32" height="32" viewBox="0 0 32 32">
<title>delete</title>
<path d="M4.989 9.994v20.020c0 1.101 0.901 2.002 2.002 2.002h18.018c1.101 0 2.002-0.901 2.002-2.002v-20.020h-22.021zM10.995 28.012h-2.002v-14.014h2.002v14.014zM14.999 28.012h-2.002v-14.014h2.002v14.014zM19.003 28.012h-2.002v-14.014h2.002v14.014zM23.007 28.012h-2.002v-14.014h2.002v14.014zM27.511 3.988h-6.506v-2.502c0-0.826-0.676-1.501-1.501-1.501h-7.007c-0.826 0-1.501 0.676-1.501 1.501v2.502h-6.506c-0.826 0-1.501 0.676-1.501 1.501v2.502h26.025v-2.502c0-0.826-0.676-1.501-1.501-1.501zM19.003 3.988h-6.006v-1.977h6.006v1.977z"></path>
</svg>
