<!-- Generated by IcoMoon.io -->
<svg version="1.1" xmlns="http://www.w3.org/2000/svg" width="40" height="32" viewBox="0 0 40 32">
<title>eye-slash</title>
<path d="M20.031 25.018c-4.75 0-8.595-3.677-8.949-8.336l-6.569-5.077c-0.864 1.083-1.658 2.229-2.3 3.481-0.137 0.266-0.218 0.581-0.218 0.914s0.081 0.648 0.223 0.925l-0.005-0.011c3.396 6.626 10.119 11.109 17.817 11.109 1.685 0 3.311-0.25 4.878-0.655l-3.249-2.514c-0.487 0.099-1.049 0.158-1.624 0.163l-0.004 0zM39.683 28.656l-6.923-5.35c2.077-1.758 3.782-3.88 5.034-6.277l0.054-0.115c0.137-0.266 0.218-0.581 0.218-0.914s-0.081-0.648-0.223-0.925l0.005 0.011c-3.396-6.626-10.119-11.109-17.817-11.109-3.383 0.004-6.562 0.879-9.324 2.411l0.099-0.050-7.967-6.158c-0.168-0.132-0.382-0.211-0.615-0.211-0.321 0-0.606 0.151-0.79 0.385l-0.002 0.002-1.229 1.582c-0.132 0.168-0.211 0.382-0.211 0.615 0 0.321 0.15 0.606 0.385 0.789l0.002 0.002 36.844 28.476c0.168 0.132 0.382 0.211 0.615 0.211 0.321 0 0.606-0.151 0.79-0.385l0.002-0.002 1.23-1.582c0.131-0.168 0.211-0.382 0.211-0.615 0-0.321-0.151-0.606-0.385-0.79l-0.002-0.002zM28.178 19.764l-2.461-1.902c0.198-0.553 0.316-1.192 0.326-1.857l0-0.004c0-0.023 0-0.051 0-0.078 0-3.277-2.657-5.934-5.934-5.934-0.593 0-1.165 0.087-1.705 0.249l0.042-0.011c0.363 0.488 0.582 1.101 0.583 1.766v0c-0.010 0.227-0.045 0.441-0.101 0.647l0.005-0.021-4.61-3.563c1.534-1.288 3.529-2.072 5.708-2.073h0c0.001 0 0.003 0 0.005 0 4.978 0 9.013 4.035 9.013 9.013 0 0.002 0 0.004 0 0.005v-0c0 1.355-0.331 2.617-0.87 3.764z"></path>
</svg>
