<!-- Generated by IcoMoon.io -->
<svg version="1.1" xmlns="http://www.w3.org/2000/svg" width="36" height="32" viewBox="0 0 36 32">
<title>eye</title>
<path d="M35.849 15.086c-3.396-6.626-10.119-11.109-17.817-11.109s-14.423 4.486-17.817 11.11c-0.137 0.266-0.218 0.581-0.218 0.914s0.081 0.648 0.223 0.925l-0.005-0.011c3.396 6.626 10.119 11.109 17.817 11.109s14.423-4.486 17.817-11.11c0.137-0.266 0.218-0.581 0.218-0.914s-0.081-0.648-0.223-0.925l0.005 0.011zM18.031 25.018c-4.98 0-9.018-4.037-9.018-9.018s4.037-9.018 9.018-9.018c4.98 0 9.018 4.037 9.018 9.018v0c0 0.001 0 0.003 0 0.004 0 4.978-4.035 9.013-9.013 9.013-0.002 0-0.003 0-0.005 0h0zM18.031 9.988c-0.568 0.008-1.112 0.094-1.627 0.248l0.042-0.011c0.364 0.49 0.583 1.108 0.583 1.776 0 1.655-1.342 2.997-2.997 2.997-0.668 0-1.286-0.219-1.784-0.589l0.008 0.006c-0.133 0.471-0.209 1.012-0.209 1.571 0 3.313 2.685 5.998 5.998 5.998s5.998-2.685 5.998-5.998c0-3.313-2.685-5.998-5.998-5.998-0.005 0-0.010 0-0.015 0h0.001z"></path>
</svg>
