<!-- Generated by IcoMoon.io -->
<svg version="1.1" xmlns="http://www.w3.org/2000/svg" width="32" height="32" viewBox="0 0 32 32">
<title>help</title>
<path d="M16.029-0.016c-4.994 0-8.228 2.046-10.767 5.695-0.461 0.662-0.319 1.569 0.324 2.057l2.699 2.046c0.649 0.492 1.572 0.377 2.080-0.259 1.567-1.963 2.73-3.094 5.177-3.094 1.925 0 4.305 1.239 4.305 3.105 0 1.411-1.165 2.135-3.065 3.201-2.216 1.242-5.149 2.789-5.149 6.657v0.612c0 0.829 0.672 1.501 1.501 1.501h4.534c0.829 0 1.501-0.672 1.501-1.501v-0.361c0-2.681 7.837-2.793 7.837-10.049 0-5.464-5.668-9.609-10.978-9.609zM15.403 23.348c-2.39 0-4.334 1.944-4.334 4.334s1.944 4.334 4.334 4.334 4.334-1.944 4.334-4.334-1.944-4.334-4.334-4.334z"></path>
</svg>
