<!-- Generated by IcoMoon.io -->
<svg version="1.1" xmlns="http://www.w3.org/2000/svg" width="32" height="32" viewBox="0 0 32 32">
<title>image</title>
<path d="M28 5c0.55 0 1 0.45 1 1v19.988l-0.313-0.406-8.5-11c-0.281-0.369-0.725-0.581-1.188-0.581s-0.9 0.213-1.188 0.581l-5.188 6.713-1.906-2.669c-0.281-0.394-0.731-0.625-1.219-0.625s-0.938 0.231-1.219 0.631l-5 7-0.281 0.387v-20.019c0-0.55 0.45-1 1-1h24zM4 2c-2.206 0-4 1.794-4 4v20c0 2.206 1.794 4 4 4h24c2.206 0 4-1.794 4-4v-20c0-2.206-1.794-4-4-4h-24zM9 14c1.657 0 3-1.343 3-3s-1.343-3-3-3v0c-1.657 0-3 1.343-3 3s1.343 3 3 3v0z"></path>
</svg>
