<!-- Generated by IcoMoon.io -->
<svg version="1.1" xmlns="http://www.w3.org/2000/svg" width="32" height="32" viewBox="0 0 32 32">
<title>key</title>
<path d="M21 22c6.075 0 11-4.925 11-11s-4.925-11-11-11-11 4.925-11 11c0 1.169 0.181 2.3 0.519 3.356l-10.081 10.081c-0.281 0.281-0.438 0.663-0.438 1.063v5c0 0.831 0.669 1.5 1.5 1.5h5c0.831 0 1.5-0.669 1.5-1.5v-2.5h2.5c0.831 0 1.5-0.669 1.5-1.5v-2.5h2.5c0.4 0 0.781-0.156 1.063-0.438l2.081-2.081c1.056 0.337 2.188 0.519 3.356 0.519zM23.5 6c1.381 0 2.5 1.119 2.5 2.5s-1.119 2.5-2.5 2.5v0c-1.381 0-2.5-1.119-2.5-2.5s1.119-2.5 2.5-2.5v0z"></path>
</svg>
