<!-- Generated by IcoMoon.io -->
<svg version="1.1" xmlns="http://www.w3.org/2000/svg" width="32" height="32" viewBox="0 0 32 32">
<title>plus</title>
<path d="M29.743 12.771h-10.296v-10.296c0-1.263-1.025-2.288-2.288-2.288h-2.288c-1.263 0-2.288 1.025-2.288 2.288v10.296h-10.296c-1.263 0-2.288 1.025-2.288 2.288v2.288c0 1.263 1.025 2.288 2.288 2.288h10.296v10.296c0 1.263 1.025 2.288 2.288 2.288h2.288c1.263 0 2.288-1.025 2.288-2.288v-10.296h10.296c1.263 0 2.288-1.025 2.288-2.288v-2.288c0-1.263-1.025-2.288-2.288-2.288z"></path>
</svg>
