<!-- Generated by IcoMoon.io -->
<svg version="1.1" xmlns="http://www.w3.org/2000/svg" width="32" height="32" viewBox="0 0 32 32">
<title>reload</title>
<path d="M23.408 8.075c-2.019-1.89-4.639-2.927-7.418-2.924-5.002 0.004-9.321 3.434-10.513 8.192-0.087 0.346-0.395 0.591-0.752 0.591h-3.701c-0.484 0-0.852-0.44-0.762-0.915 1.397-7.42 7.912-13.034 15.738-13.034 4.291 0 8.188 1.688 11.063 4.436l2.306-2.306c0.976-0.976 2.646-0.285 2.646 1.096v8.657c0 0.856-0.694 1.55-1.55 1.55h-8.657c-1.381 0-2.072-1.669-1.096-2.646l2.696-2.696zM1.534 18.583h8.657c1.381 0 2.072 1.669 1.096 2.646l-2.696 2.696c2.019 1.89 4.639 2.927 7.419 2.924 5-0.004 9.32-3.432 10.513-8.192 0.087-0.346 0.395-0.591 0.752-0.591h3.701c0.484 0 0.852 0.44 0.762 0.915-1.397 7.42-7.912 13.033-15.738 13.033-4.291 0-8.188-1.688-11.063-4.436l-2.306 2.306c-0.976 0.976-2.646 0.285-2.646-1.096v-8.657c0-0.856 0.694-1.55 1.55-1.55z"></path>
</svg>
