<!-- Generated by IcoMoon.io -->
<svg version="1.1" xmlns="http://www.w3.org/2000/svg" width="32" height="32" viewBox="0 0 32 32">
<title>save</title>
<path d="M31.010 6.987l-5.997-5.997c-0.621-0.621-1.479-1.005-2.427-1.005h-19.17c-1.895 0-3.432 1.536-3.432 3.432v25.167c0 1.895 1.536 3.432 3.432 3.432h25.167c1.895 0 3.432-1.537 3.432-3.432v-19.17c0-0.948-0.384-1.806-1.005-2.427v0zM19.432 3.416v5.72h-9.152v-5.72h9.152zM28.155 28.584h-24.31c-0.237 0-0.429-0.192-0.429-0.429v0-24.31c0-0.237 0.192-0.429 0.429-0.429v0h3.003v7.436c0 0.948 0.768 1.716 1.716 1.716h12.584c0.948 0 1.716-0.768 1.716-1.716v-7.158l5.594 5.594c0.078 0.078 0.126 0.185 0.126 0.303 0 0 0 0 0 0v0 18.563c0 0.237-0.192 0.429-0.429 0.429v0zM16 14.284c-3.469 0-6.292 2.823-6.292 6.292s2.823 6.292 6.292 6.292 6.292-2.823 6.292-6.292-2.823-6.292-6.292-6.292zM16 23.436c-1.577 0-2.86-1.283-2.86-2.86s1.283-2.86 2.86-2.86 2.86 1.283 2.86 2.86-1.283 2.86-2.86 2.86z"></path>
</svg>
