<!-- Generated by IcoMoon.io -->
<svg version="1.1" xmlns="http://www.w3.org/2000/svg" width="32" height="32" viewBox="0 0 32 32">
<title>search</title>
<path d="M31.023 27.242l-7.587-6.453c-0.784-0.706-1.623-1.030-2.301-0.999 1.791-2.098 2.873-4.82 2.873-7.794 0-6.634-5.378-12.012-12.012-12.012s-12.012 5.378-12.012 12.012 5.378 12.012 12.012 12.012c2.975 0 5.696-1.082 7.794-2.873-0.031 0.678 0.293 1.516 0.999 2.301l6.453 7.587c1.105 1.228 2.91 1.331 4.011 0.23s0.998-2.906-0.23-4.011zM11.996 20.004c-4.423 0-8.008-3.585-8.008-8.008s3.585-8.008 8.008-8.008 8.008 3.585 8.008 8.008-3.585 8.008-8.008 8.008z"></path>
</svg>
