<!-- Generated by IcoMoon.io -->
<svg version="1.1" xmlns="http://www.w3.org/2000/svg" width="32" height="32" viewBox="0 0 32 32">
<title>star-empty</title>
<path d="M30.391 11.143l-8.747-1.275-3.91-7.927c-0.701-1.413-2.73-1.431-3.437 0l-3.91 7.927-8.747 1.275c-1.569 0.227-2.197 2.161-1.060 3.269l6.328 6.167-1.497 8.711c-0.269 1.575 1.389 2.754 2.778 2.018l7.825-4.113 7.825 4.113c1.389 0.73 3.047-0.443 2.778-2.018l-1.497-8.711 6.328-6.167c1.138-1.108 0.509-3.041-1.060-3.269zM22.039 19.573l1.419 8.286-7.442-3.91-7.442 3.91 1.419-8.286-6.023-5.867 8.322-1.209 3.724-7.544 3.724 7.544 8.322 1.209-6.023 5.867z"></path>
</svg>
