<!-- Generated by IcoMoon.io -->
<svg version="1.1" xmlns="http://www.w3.org/2000/svg" width="32" height="32" viewBox="0 0 32 32">
<title>tags</title>
<path d="M21.563 2.444l7.988 8.081c3.275 3.313 3.275 8.638 0 11.95l-7 7.081c-0.581 0.587-1.531 0.594-2.119 0.012s-0.594-1.531-0.012-2.119l6.994-7.081c2.119-2.144 2.119-5.588 0-7.731l-7.981-8.081c-0.581-0.587-0.575-1.538 0.012-2.119s1.538-0.575 2.119 0.013zM0 14.344v-9.344c0-1.656 1.344-3 3-3h9.344c1.063 0 2.081 0.419 2.831 1.169l10.5 10.5c1.563 1.563 1.563 4.094 0 5.656l-8.344 8.344c-1.563 1.563-4.094 1.563-5.656 0l-10.5-10.5c-0.756-0.75-1.175-1.762-1.175-2.825zM9 9c0-1.105-0.895-2-2-2s-2 0.895-2 2v0c0 1.105 0.895 2 2 2s2-0.895 2-2v0z"></path>
</svg>
