<!-- Generated by IcoMoon.io -->
<svg version="1.1" xmlns="http://www.w3.org/2000/svg" width="32" height="32" viewBox="0 0 32 32">
<title>warning</title>
<path d="M16 2.886l13.423 26.752h-26.845l13.423-26.752zM16-0.016c-0.69 0-1.381 0.466-1.905 1.397l-13.672 27.249c-1.047 1.862-0.156 3.386 1.98 3.386h27.192c2.136 0 3.028-1.524 1.98-3.386h0l-13.672-27.249c-0.524-0.931-1.214-1.397-1.904-1.397v0zM18.002 26.010c0 1.106-0.896 2.002-2.002 2.002s-2.002-0.896-2.002-2.002c0-1.106 0.896-2.002 2.002-2.002s2.002 0.896 2.002 2.002zM16 22.006c-1.106 0-2.002-0.896-2.002-2.002v-6.006c0-1.106 0.896-2.002 2.002-2.002s2.002 0.896 2.002 2.002v6.006c0 1.106-0.896 2.002-2.002 2.002z"></path>
</svg>
